<svg width="21" height="18" viewBox="0 0 21 18" fill="none" xmlns="http://www.w3.org/2000/svg">
<path d="M20.1131 4.50223C20.2359 1.89955 19.266 0.561383 17.2158 0.499999C14.4412 0.414061 12.5629 1.97321 11.5807 5.18973C12.0964 4.98103 12.5874 4.87053 13.0662 4.87053C14.0729 4.87053 14.5149 5.43527 14.4044 6.57701C14.343 7.26451 13.9011 8.2712 13.0662 9.5971C12.2191 10.923 11.593 11.5737 11.1756 11.5737C10.6354 11.5737 10.1566 10.5547 9.70239 8.51674C9.55507 7.92745 9.27271 6.39286 8.89213 3.9375C8.52382 1.66629 7.57851 0.61049 6.01936 0.757811C5.35641 0.819196 4.36199 1.3962 3.06065 2.55022C2.09079 3.39732 1.12092 4.28125 0.138777 5.1529L1.08409 6.35603C1.98029 5.72991 2.49592 5.42299 2.64324 5.42299C3.33074 5.42299 3.98141 6.49107 4.5707 8.63951C5.11088 10.6161 5.65105 12.5926 6.19123 14.5569C6.98922 16.7054 7.97137 17.7857 9.13766 17.7857C11.0283 17.7857 13.3118 16.0179 16.0372 12.4944C18.6644 9.10603 20.0272 6.44196 20.1131 4.50223Z" fill="#035755"/>
</svg>
