<svg width="23" height="16" viewBox="0 0 23 16" fill="none" xmlns="http://www.w3.org/2000/svg">
<path d="M9.58121 10.9911V4.81585L15.5232 7.92187L9.58121 10.9911ZM11.8524 0.408482C7.22407 0.408482 4.15487 0.629464 4.15487 0.629464C3.72519 0.678571 2.77987 0.678571 1.94505 1.5625C1.94505 1.5625 1.26983 2.22545 1.0734 3.74777C0.84014 5.5279 0.852417 7.30804 0.852417 7.30804V8.97768C0.852417 8.97768 0.84014 10.7578 1.0734 12.5379C1.26983 14.048 1.94505 14.7232 1.94505 14.7232C2.77987 15.5949 3.88478 15.5703 4.37585 15.6562C4.37585 15.6562 6.13144 15.8281 11.8524 15.8772C16.4808 15.8772 19.55 15.644 19.55 15.644C19.9797 15.5949 20.925 15.5949 21.7598 14.7232C21.7598 14.7232 22.435 14.048 22.6314 12.5379C22.8647 10.7578 22.8524 8.97768 22.8524 8.97768V7.30804C22.8524 7.30804 22.8647 5.5279 22.6314 3.74777C22.435 2.22545 21.7598 1.5625 21.7598 1.5625C20.925 0.678571 19.9797 0.678571 19.55 0.629464C19.55 0.629464 16.4808 0.408482 11.8524 0.408482Z" fill="#F44A45"/>
</svg>
